# xmcd
#
# Track frame offsets: 
#        150
#        18920
#        40990
#        65281
#        88978
#        111253
#        132327
#        151187
#        176017
#        193261
#
# Disc length: 2759 seconds
#
# Revision: 0
# Processed by: cddbd v1.5.1PL2 Copyright (c) Steve Scherf et al.
# Submitted via: ExactAudioCopy v0.95b2
#
DISCID=860ac50a
DTITLE=Tasler - TH
DYEAR=2001
DGENRE=pop
TTITLE0=Losos
TTITLE1=Miluj blizneho
TTITLE2=100 dni
TTITLE3=Odkazy
TTITLE4=Len tebe
TTITLE5=Vsetko, alebo nic
TTITLE6=Hnev
TTITLE7=Ludia su schopni vsetkeho
TTITLE8=Losos LJ mix
TTITLE9=Odkazy this is Kevin mix
EXTD=
EXTT0=
EXTT1=
EXTT2=
EXTT3=
EXTT4=
EXTT5=
EXTT6=
EXTT7=
EXTT8=
EXTT9=
PLAYORDER=
